<svg xmlns="http://www.w3.org/2000/svg" viewBox="0 0 100 100" width="100" height="100">
  <!-- SolveLog mark: the modified bear on a blood field -->
  <rect width="100" height="100" rx="22" fill="#b81d24"/>
  <g transform="translate(50 51) scale(0.66) translate(-50 -50)"
     fill="none" stroke="#f4efe2" stroke-width="6" stroke-linejoin="round" stroke-linecap="round">
    <circle cx="26" cy="26" r="13"/>
    <circle cx="74" cy="26" r="13"/>
    <path d="M18 50 C18 28, 38 18, 50 18 C62 18, 82 28, 82 50 C82 74, 66 88, 50 88 C34 88, 18 74, 18 50 Z"/>
    <circle cx="38" cy="48" r="3.6" fill="#f4efe2" stroke="none"/>
    <circle cx="62" cy="48" r="3.6" fill="#f4efe2" stroke="none"/>
    <path d="M34 66 L66 66"/>
    <path d="M38 66 L41 72 L44 66 L47 72 L50 66 L53 72 L56 66 L59 72 L62 66"/>
  </g>
</svg>
